<svg xmlns="http://www.w3.org/2000/svg" width="720" height="315" viewBox="0 0 720 315" role="img">
  <title>WINDOWS 100%</title>
  <rect width="720" height="315" fill="#cbb48a"/>
  <circle cx="560" cy="70" r="70" fill="none" stroke="#2f6a62" stroke-width="10" opacity="0.22"/>
  <rect x="0" y="278" width="720" height="37" fill="#3e4f4b"/>
  <rect x="0" y="278" width="720" height="3" fill="#8a9a90"/>
  <rect x="8" y="285" width="78" height="24" fill="#e7dfcc" stroke="#2a2720"/>
  <text x="47" y="302" text-anchor="middle" font-family="Verdana, Geneva, sans-serif" font-size="11" font-weight="700" fill="#241f18">Bureau</text>
  <rect x="94" y="286" width="110" height="22" fill="#efe6d2" stroke="#2a2720"/>
  <text x="149" y="301" text-anchor="middle" font-family="Verdana, Geneva, sans-serif" font-size="10" font-weight="700" fill="#241f18">Bloc-nots</text>
  <rect x="560" y="286" width="148" height="22" fill="#33443f" stroke="#2a2720"/>
  <text x="634" y="301" text-anchor="middle" font-family="Verdana, Geneva, sans-serif" font-size="10" font-weight="700" fill="#efe6d2">dérèglement 47%</text>

  <g transform="translate(28 48)">
    <rect width="32" height="24" fill="#e2b15a" stroke="#2a2720"/>
    <rect y="-6" width="14" height="8" fill="#c9863a" stroke="#2a2720"/>
    <text x="16" y="40" text-anchor="middle" font-family="Verdana, Geneva, sans-serif" font-size="10" font-weight="700" fill="#241f18">Dossier</text>
  </g>
  <g transform="translate(28 118)">
    <rect width="28" height="32" fill="#efe6d2" stroke="#2a2720"/>
    <rect width="6" height="32" fill="#2f6a62"/>
    <text x="14" y="48" text-anchor="middle" font-family="Verdana, Geneva, sans-serif" font-size="10" font-weight="700" fill="#241f18">Blc-notes</text>
  </g>
  <g transform="translate(28 198)">
    <rect x="4" y="4" width="24" height="26" fill="#6b756c" stroke="#2a2720"/>
    <rect x="2" y="0" width="28" height="6" fill="#9aa397" stroke="#2a2720"/>
    <text x="16" y="46" text-anchor="middle" font-family="Verdana, Geneva, sans-serif" font-size="10" font-weight="700" fill="#241f18">Corbeille</text>
  </g>

  <g transform="translate(168 42) rotate(-2 250 90)">
    <rect width="300" height="168" fill="#efe6d2" stroke="#2a2720" stroke-width="2"/>
    <rect width="300" height="26" fill="#2f6a62"/>
    <rect x="8" y="8" width="10" height="10" fill="#efe6d2" stroke="#2a2720"/>
    <text x="26" y="18" font-family="Verdana, Geneva, sans-serif" font-size="12" font-weight="700" fill="#efe6d2">Horloge</text>
    <rect x="246" y="5" width="18" height="16" fill="#e7dfcc" stroke="#2a2720"/>
    <rect x="267" y="5" width="18" height="16" fill="#e7dfcc" stroke="#2a2720"/>
    <text x="150" y="108" text-anchor="middle" font-family="Verdana, Geneva, sans-serif" font-size="42" font-weight="800" fill="#241f18">100%</text>
  </g>

  <g transform="translate(430 86) rotate(3 140 70)">
    <rect width="248" height="132" fill="#efe6d2" stroke="#2a2720" stroke-width="2"/>
    <rect width="248" height="26" fill="#3d8379"/>
    <text x="10" y="18" font-family="Verdana, Geneva, sans-serif" font-size="12" font-weight="700" fill="#efe6d2">Alerte système</text>
    <text x="16" y="64" font-family="Verdana, Geneva, sans-serif" font-size="13" fill="#5c5346">Ceci n’est pas une alerte.</text>
    <rect x="16" y="86" width="72" height="22" fill="#e7dfcc" stroke="#2a2720"/>
    <text x="52" y="101" text-anchor="middle" font-family="Verdana, Geneva, sans-serif" font-size="11" font-weight="700" fill="#241f18">entendu</text>
  </g>

  <text x="24" y="34" font-family="Verdana, Geneva, sans-serif" font-size="22" font-weight="800" fill="#241f18">WINDOWS 100%</text>
</svg>
